{"title":"Desi NRI Girl with Firangi (RRG) - Indian Porn","uid":8354027,"size":241742916,"categoryP":"porn","categoryS":"movies","magnet":"?xt=urn:btih:8390e610b7a0e52925d5a8a187c4a2d8126bd2a5&amp;dn=Desi+NRI+Girl+with+Firangi+%28RRG%29+-+Indian+Porn&amp;tr=udp%3A%2F%2Ftracker.openbittorrent.com%3A80&amp;tr=udp%3A%2F%2Fopen.demonii.com%3A1337&amp;tr=udp%3A%2F%2Ftracker.coppersurfer.tk%3A6969&amp;tr=udp%3A%2F%2Fexodus.desync.com%3A6969","seeders":1,"leechers":0,"uploader":"SJonam","files":1,"time":1365436592,"description":" &lt;a href=&quot;http://desibbrg.net/imghost/out.php?i=427662_dbbkp2.jpg&quot; rel=&quot;nofollow&quot; target=&quot;_NEW&quot;&gt;http://desibbrg.net/imghost/out.php?i=427662_dbbkp2.jpg&lt;/a&gt;\n &lt;a href=&quot;\nhttp://desibbrg.net/imghost/out.php?i=430764_Desinrigirl.wmvthumbs2013.04.0819.19.11.jpg&quot; rel=&quot;nofollow&quot; target=&quot;_NEW&quot;&gt;\nhttp://desibbrg.net/imghost/out.php?i=430764_Desinrigirl.wmvthumbs2013.04.0819.19.11.jpg&lt;/a&gt;\n\nMedia Info - \nVideo\nID                             : 2\nFormat                         : VC-1\nFormat profile                 : Main\nCodec ID                       : WMV3\nCodec ID/Info                  : Windows Media Video 9\nCodec ID/Hint                  : WMV3\nDescription of the codec       : Windows Media Video V9 - 636 x 360, 29.97 fps, 1500 kbps (CBR)\nDuration                       : 19mn 41s\nBit rate                       : 1 500 Kbps\nWidth                          : 636 pixels\nHeight                         : 360 pixels\nDisplay aspect ratio           : 16:9\nFrame rate                     : 29.970 fps\nBit depth                      : 8 bits\nScan type                      : Progressive\nCompression mode               : Lossy\nBits/(Pixel*Frame)             : 0.219\nStream size                    : 211 MiB (92%)\nLanguage                       : English (US)\n\nAudio\nID                             : 1\nFormat                         : WMA\nFormat version                 : Version 2\nCodec ID                       : 161\nCodec ID/Info                  : Windows Media Audio\nDescription of the codec       : Windows Media Audio V9 Standard - 128 kbps, 44 kHz, 16 bit, Stereo (CBR)\nDuration                       : 19mn 41s\nBit rate mode                  : Constant\nBit rate                       : 128 Kbps\nChannel(s)                     : 2 channels\nSampling rate                  : 44.1 KHz\nBit depth                      : 16 bits\nStream size                    : 18.0 MiB (8%)\nLanguage                       : English (US)\n\nSeeding 24x7... Extreme Seeding...\n\n\nEnjoy!\n","torrent":{"xt":"urn:btih:8390e610b7a0e52925d5a8a187c4a2d8126bd2a5","amp;dn":"Desi+NRI+Girl+with+Firangi+%28RRG%29+-+Indian+Porn","amp;tr":["udp%3A%2F%2Ftracker.openbittorrent.com%3A80","udp%3A%2F%2Fopen.demonii.com%3A1337","udp%3A%2F%2Ftracker.coppersurfer.tk%3A6969","udp%3A%2F%2Fexodus.desync.com%3A6969"],"infoHash":"8390e610b7a0e52925d5a8a187c4a2d8126bd2a5","infoHashBuffer":{"type":"Buffer","data":[131,144,230,16,183,160,229,41,37,213,168,161,135,196,162,216,18,107,210,165]},"announce":[],"urlList":[]}}